<svg width="178" height="30" viewBox="0 0 178 30" fill="none" xmlns="http://www.w3.org/2000/svg">
  <g id="logo itself">
    <path
      id="Vector"
      d="M0.312866 1.07207V8.08184H2.91953V29.187H10.9848V1.07207H0.312866ZM45.201 20.8767C46.7972 22.4049 48.7742 23.1708 51.1319 23.1708C53.4896 23.1708 55.4629 22.4049 57.0518 20.8767C58.6407 19.3451 59.4352 17.4305 59.4352 15.133C59.4352 12.8321 58.6407 10.9209 57.0518 9.39962C55.4629 7.87485 53.4933 7.11592 51.1319 7.11592C48.7742 7.11592 46.7972 7.8783 45.201 9.39962C43.6048 10.9209 42.8103 12.8321 42.8103 15.133C42.8103 17.4339 43.6084 19.3451 45.201 20.8767ZM62.8985 25.6132C59.6731 28.5316 55.7448 29.9943 51.1209 29.9943C46.4934 29.9943 42.5687 28.535 39.3433 25.6132C36.1179 22.6913 34.5071 19.1967 34.5071 15.133C34.5071 11.0658 36.1179 7.57473 39.3433 4.65285C42.5651 1.73096 46.4934 0.268291 51.1209 0.268291C55.7448 0.268291 59.6695 1.73096 62.8985 4.65285C66.1239 7.57128 67.7348 11.0658 67.7348 15.133C67.7348 19.1967 66.1239 22.6913 62.8985 25.6132ZM91.1948 18.3447H93.7502V21.3907C93.7502 21.3907 93.6587 21.5115 93.2926 21.8185C92.8203 22.2152 92.3077 22.436 91.462 22.7292C90.6163 23.0224 89.6791 23.1673 88.654 23.1673C86.2121 23.1673 84.1802 22.4015 82.5584 20.8733C80.9329 19.3451 80.1238 17.4305 80.1238 15.1296C80.1238 12.8286 80.9329 10.9175 82.5584 9.39617C84.1802 7.87485 86.2158 7.11247 88.654 7.11247C89.5546 7.11247 90.4479 7.24356 91.3266 7.49539C92.2089 7.75067 92.9155 8.03699 93.4573 8.35781C93.9991 8.67863 94.519 9.0443 95.0206 9.45826C95.5221 9.86878 95.837 10.1585 95.9798 10.3207C96.1152 10.4863 96.2287 10.6174 96.3129 10.7243L101.226 5.90163L100.746 5.33588C100.443 4.94262 99.9374 4.47346 99.2381 3.92496C98.5388 3.37646 97.7188 2.82796 96.7815 2.27601C95.8443 1.72751 94.6545 1.25835 93.212 0.865088C91.7696 0.475273 90.2502 0.275191 88.654 0.275191C84.0191 0.275191 80.0908 1.73786 76.8654 4.65975C73.6401 7.58163 72.0255 11.0727 72.0255 15.1399C72.0255 19.2071 73.6401 22.6982 76.8654 25.6201C80.0908 28.5419 84.0191 30.0012 88.654 30.0012C90.2502 30.0012 91.7952 29.8011 93.2962 29.4044C94.7936 29.0042 96.0237 28.5557 96.9793 28.0624C97.9385 27.5657 98.8317 26.993 99.6665 26.3445C100.498 25.6959 101.047 25.2475 101.31 24.9922C101.574 24.7369 101.761 24.5334 101.874 24.3747V13.5323H91.2021V18.355L91.1948 18.3447ZM124.631 12.1318L115.475 1.07207H108.233V29.187H116.328V12.525L124.631 22.3636L132.953 12.525V29.187H141.047V1.07207H133.806L124.631 12.1318ZM161.915 8.91666L164.683 17.1511H159.148L161.915 8.91666ZM157.441 1.07552L146.14 29.1905H154.879L157.002 23.1742H166.803L168.948 29.1905H177.687L166.389 1.07552H157.445H157.441ZM25.6766 5.1289C22.6929 2.4209 18.9293 1.07207 14.3786 1.07207H12.8483V7.9128H14.3786C16.6265 7.9128 18.4644 8.58549 19.8922 9.93087C21.32 11.2797 22.0339 13.0114 22.0339 15.1296C22.0339 17.1925 21.276 18.9173 19.764 20.2972C18.252 21.6771 16.4544 22.3636 14.375 22.3636H12.8446V29.187H14.375C18.911 29.187 22.6746 27.8348 25.662 25.1302C28.6494 22.4222 30.1468 19.0898 30.1468 15.1296C30.1468 11.1693 28.6531 7.83691 25.673 5.1289H25.6766Z"
      fill="white"
    />
  </g>
</svg>
